<svg viewBox="0 0 1299.6666259765625 400" xmlns="http://www.w3.org/2000/svg"><g><g><g><g><g><line x1="51.5625" y1="373.4457665393362" x2="46.5625" y2="373.4457665393362" style="visibility: inherit;" fill="rgb(0, 0, 0)" stroke="rgb(204, 204, 204)" stroke-width="1px"></line><line x1="51.5625" y1="339.3546141002539" x2="46.5625" y2="339.3546141002539" style="visibility: inherit;" fill="rgb(0, 0, 0)" stroke="rgb(204, 204, 204)" stroke-width="1px"></line><line x1="51.5625" y1="312.91146191208287" x2="46.5625" y2="312.91146191208287" style="visibility: inherit;" fill="rgb(0, 0, 0)" stroke="rgb(204, 204, 204)" stroke-width="1px"></line><line x1="51.5625" y1="291.3058334048172" x2="46.5625" y2="291.3058334048172" style="visibility: inherit;" fill="rgb(0, 0, 0)" stroke="rgb(204, 204, 204)" stroke-width="1px"></line><line x1="51.5625" y1="273.0385347866175" x2="46.5625" y2="273.0385347866175" style="visibility: inherit;" fill="rgb(0, 0, 0)" stroke="rgb(204, 204, 204)" stroke-width="1px"></line><line x1="51.5625" y1="257.214680965735" x2="46.5625" y2="257.214680965735" style="visibility: inherit;" fill="rgb(0, 0, 0)" stroke="rgb(204, 204, 204)" stroke-width="1px"></line><line x1="51.5625" y1="243.2570527093803" x2="46.5625" y2="243.2570527093803" style="visibility: inherit;" fill="rgb(0, 0, 0)" stroke="rgb(204, 204, 204)" stroke-width="1px"></line><line x1="51.5625" y1="230.77152877756382" x2="46.5625" y2="230.77152877756382" style="visibility: inherit;" fill="rgb(0, 0, 0)" stroke="rgb(204, 204, 204)" stroke-width="1px"></line><line x1="51.5625" y1="148.6315956430448" x2="46.5625" y2="148.6315956430448" style="visibility: inherit;" fill="rgb(0, 0, 0)" stroke="rgb(204, 204, 204)" stroke-width="1px"></line><line x1="51.5625" y1="100.58281494760799" x2="46.5625" y2="100.58281494760799" style="visibility: inherit;" fill="rgb(0, 0, 0)" stroke="rgb(204, 204, 204)" stroke-width="1px"></line><line x1="51.5625" y1="66.49166250852572" x2="46.5625" y2="66.49166250852572" style="visibility: inherit;" fill="rgb(0, 0, 0)" stroke="rgb(204, 204, 204)" stroke-width="1px"></line><line x1="51.5625" y1="40.04851032035467" x2="46.5625" y2="40.04851032035467" style="visibility: inherit;" fill="rgb(0, 0, 0)" stroke="rgb(204, 204, 204)" stroke-width="1px"></line><line x1="51.5625" y1="18.442881813088917" x2="46.5625" y2="18.442881813088917" style="visibility: inherit;" fill="rgb(0, 0, 0)" stroke="rgb(204, 204, 204)" stroke-width="1px"></line><line x1="51.5625" y1="0.17558319488924434" x2="46.5625" y2="0.17558319488924434" style="visibility: inherit;" fill="rgb(0, 0, 0)" stroke="rgb(204, 204, 204)" stroke-width="1px"></line></g><g transform="translate(41.5625, 0)"><text x="0" y="373.4457665393362" dx="0em" dy="0.3em" style="text-anchor: end; visibility: hidden; font-family: Roboto, sans-serif; font-size: 12px; font-weight: 200;" fill="rgb(50, 49, 63)" stroke="none" stroke-width="1px">3e-3</text><text x="0" y="339.3546141002539" dx="0em" dy="0.3em" style="text-anchor: end; visibility: inherit; font-family: Roboto, sans-serif; font-size: 12px; font-weight: 200;" fill="rgb(50, 49, 63)" stroke="none" stroke-width="1px">4e-3</text><text x="0" y="312.91146191208287" dx="0em" dy="0.3em" style="text-anchor: end; visibility: hidden; font-family: Roboto, sans-serif; font-size: 12px; font-weight: 200;" fill="rgb(50, 49, 63)" stroke="none" stroke-width="1px">5e-3</text><text x="0" y="291.3058334048172" dx="0em" dy="0.3em" style="text-anchor: end; visibility: inherit; font-family: Roboto, sans-serif; font-size: 12px; font-weight: 200;" fill="rgb(50, 49, 63)" stroke="none" stroke-width="1px">6e-3</text><text x="0" y="273.0385347866175" dx="0em" dy="0.3em" style="text-anchor: end; visibility: hidden; font-family: Roboto, sans-serif; font-size: 12px; font-weight: 200;" fill="rgb(50, 49, 63)" stroke="none" stroke-width="1px">7e-3</text><text x="0" y="257.214680965735" dx="0em" dy="0.3em" style="text-anchor: end; visibility: inherit; font-family: Roboto, sans-serif; font-size: 12px; font-weight: 200;" fill="rgb(50, 49, 63)" stroke="none" stroke-width="1px">8e-3</text><text x="0" y="243.2570527093803" dx="0em" dy="0.3em" style="text-anchor: end; visibility: hidden; font-family: Roboto, sans-serif; font-size: 12px; font-weight: 200;" fill="rgb(50, 49, 63)" stroke="none" stroke-width="1px">9e-3</text><text x="0" y="230.77152877756382" dx="0em" dy="0.3em" style="text-anchor: end; visibility: inherit; font-family: Roboto, sans-serif; font-size: 12px; font-weight: 200;" fill="rgb(50, 49, 63)" stroke="none" stroke-width="1px">0.01</text><text x="0" y="148.6315956430448" dx="0em" dy="0.3em" style="text-anchor: end; visibility: hidden; font-family: Roboto, sans-serif; font-size: 12px; font-weight: 200;" fill="rgb(50, 49, 63)" stroke="none" stroke-width="1px">0.02</text><text x="0" y="100.58281494760799" dx="0em" dy="0.3em" style="text-anchor: end; visibility: inherit; font-family: Roboto, sans-serif; font-size: 12px; font-weight: 200;" fill="rgb(50, 49, 63)" stroke="none" stroke-width="1px">0.03</text><text x="0" y="66.49166250852572" dx="0em" dy="0.3em" style="text-anchor: end; visibility: hidden; font-family: Roboto, sans-serif; font-size: 12px; font-weight: 200;" fill="rgb(50, 49, 63)" stroke="none" stroke-width="1px">0.04</text><text x="0" y="40.04851032035467" dx="0em" dy="0.3em" style="text-anchor: end; visibility: inherit; font-family: Roboto, sans-serif; font-size: 12px; font-weight: 200;" fill="rgb(50, 49, 63)" stroke="none" stroke-width="1px">0.05</text><text x="0" y="18.442881813088917" dx="0em" dy="0.3em" style="text-anchor: end; visibility: hidden; font-family: Roboto, sans-serif; font-size: 12px; font-weight: 200;" fill="rgb(50, 49, 63)" stroke="none" stroke-width="1px">0.06</text><text x="0" y="0.17558319488924434" dx="0em" dy="0.3em" style="text-anchor: end; visibility: hidden; font-family: Roboto, sans-serif; font-size: 12px; font-weight: 200;" fill="rgb(50, 49, 63)" stroke="none" stroke-width="1px">0.07</text></g><line x1="51.5625" y1="0" x2="51.5625" y2="378" fill="rgb(0, 0, 0)" stroke="rgb(204, 204, 204)" stroke-width="1px"></line></g></g><g transform="translate(51, 0)" clip-path="url(#clip_0)"><clipPath id="clip_0"><rect width="1248" height="378"></rect></clipPath><g><g><g><line x1="0" y1="0" x2="0" y2="378" fill="rgb(0, 0, 0)" stroke="rgb(60, 60, 60)" stroke-width="1px" opacity="0.25"></line><line x1="104.00895833333334" y1="0" x2="104.00895833333334" y2="378" fill="rgb(0, 0, 0)" stroke="rgb(60, 60, 60)" stroke-width="1px" opacity="0.25"></line><line x1="208.01791666666668" y1="0" x2="208.01791666666668" y2="378" fill="rgb(0, 0, 0)" stroke="rgb(60, 60, 60)" stroke-width="1px" opacity="0.25"></line><line x1="312.026875" y1="0" x2="312.026875" y2="378" fill="rgb(0, 0, 0)" stroke="rgb(60, 60, 60)" stroke-width="1px" opacity="0.25"></line><line x1="416.03583333333336" y1="0" x2="416.03583333333336" y2="378" fill="rgb(0, 0, 0)" stroke="rgb(60, 60, 60)" stroke-width="1px" opacity="0.25"></line><line x1="520.0447916666667" y1="0" x2="520.0447916666667" y2="378" fill="rgb(0, 0, 0)" stroke="rgb(60, 60, 60)" stroke-width="1px" opacity="0.25"></line><line x1="624.05375" y1="0" x2="624.05375" y2="378" fill="rgb(0, 0, 0)" stroke="rgb(60, 60, 60)" stroke-width="1px" opacity="0.25"></line><line x1="728.0627083333334" y1="0" x2="728.0627083333334" y2="378" fill="rgb(0, 0, 0)" stroke="rgb(60, 60, 60)" stroke-width="1px" opacity="0.25"></line><line x1="832.0716666666667" y1="0" x2="832.0716666666667" y2="378" fill="rgb(0, 0, 0)" stroke="rgb(60, 60, 60)" stroke-width="1px" opacity="0.25"></line><line x1="936.080625" y1="0" x2="936.080625" y2="378" fill="rgb(0, 0, 0)" stroke="rgb(60, 60, 60)" stroke-width="1px" opacity="0.25"></line><line x1="1040.0895833333334" y1="0" x2="1040.0895833333334" y2="378" fill="rgb(0, 0, 0)" stroke="rgb(60, 60, 60)" stroke-width="1px" opacity="0.25"></line><line x1="1144.0985416666667" y1="0" x2="1144.0985416666667" y2="378" fill="rgb(0, 0, 0)" stroke="rgb(60, 60, 60)" stroke-width="1px" opacity="0.25"></line><line x1="1248.1075" y1="0" x2="1248.1075" y2="378" fill="rgb(0, 0, 0)" stroke="rgb(60, 60, 60)" stroke-width="1px" opacity="0.25"></line></g><g><line x1="0" y1="373.4457665393362" x2="1248.1075" y2="373.4457665393362" fill="rgb(0, 0, 0)" stroke="rgb(60, 60, 60)" stroke-width="1px" opacity="0.25"></line><line x1="0" y1="339.3546141002539" x2="1248.1075" y2="339.3546141002539" fill="rgb(0, 0, 0)" stroke="rgb(60, 60, 60)" stroke-width="1px" opacity="0.25"></line><line x1="0" y1="312.91146191208287" x2="1248.1075" y2="312.91146191208287" fill="rgb(0, 0, 0)" stroke="rgb(60, 60, 60)" stroke-width="1px" opacity="0.25"></line><line x1="0" y1="291.3058334048172" x2="1248.1075" y2="291.3058334048172" fill="rgb(0, 0, 0)" stroke="rgb(60, 60, 60)" stroke-width="1px" opacity="0.25"></line><line x1="0" y1="273.0385347866175" x2="1248.1075" y2="273.0385347866175" fill="rgb(0, 0, 0)" stroke="rgb(60, 60, 60)" stroke-width="1px" opacity="0.25"></line><line x1="0" y1="257.214680965735" x2="1248.1075" y2="257.214680965735" fill="rgb(0, 0, 0)" stroke="rgb(60, 60, 60)" stroke-width="1px" opacity="0.25"></line><line x1="0" y1="243.2570527093803" x2="1248.1075" y2="243.2570527093803" fill="rgb(0, 0, 0)" stroke="rgb(60, 60, 60)" stroke-width="1px" opacity="0.25"></line><line x1="0" y1="230.77152877756382" x2="1248.1075" y2="230.77152877756382" fill="rgb(0, 0, 0)" stroke="rgb(60, 60, 60)" stroke-width="1px" opacity="0.25"></line><line x1="0" y1="148.6315956430448" x2="1248.1075" y2="148.6315956430448" fill="rgb(0, 0, 0)" stroke="rgb(60, 60, 60)" stroke-width="1px" opacity="0.25"></line><line x1="0" y1="100.58281494760799" x2="1248.1075" y2="100.58281494760799" fill="rgb(0, 0, 0)" stroke="rgb(60, 60, 60)" stroke-width="1px" opacity="0.25"></line><line x1="0" y1="66.49166250852572" x2="1248.1075" y2="66.49166250852572" fill="rgb(0, 0, 0)" stroke="rgb(60, 60, 60)" stroke-width="1px" opacity="0.25"></line><line x1="0" y1="40.04851032035467" x2="1248.1075" y2="40.04851032035467" fill="rgb(0, 0, 0)" stroke="rgb(60, 60, 60)" stroke-width="1px" opacity="0.25"></line><line x1="0" y1="18.442881813088917" x2="1248.1075" y2="18.442881813088917" fill="rgb(0, 0, 0)" stroke="rgb(60, 60, 60)" stroke-width="1px" opacity="0.25"></line><line x1="0" y1="0.17558319488924434" x2="1248.1075" y2="0.17558319488924434" fill="rgb(0, 0, 0)" stroke="rgb(60, 60, 60)" stroke-width="1px" opacity="0.25"></line></g></g></g><g><g><line x1="104.00895833333334" y1="0" x2="104.00895833333334" y2="378" fill="rgb(0, 0, 0)" stroke="rgb(153, 153, 153)" stroke-width="1.5px"></line></g></g><g><g><g><g><g><path stroke="rgb(0, 119, 187)" stroke-width="2px" d="M187.216125,-50.009475147196056L208.01791666666668,10.07281728071312L228.81970833333332,54.00000000000002L249.62150000000003,102.03267281895884L270.42329166666667,114.68447168346017L291.2250833333334,163.34487688064775L312.026875,186.93577716549763L332.82866666666666,177.50036911510423L353.63045833333337,166.63025467328384L374.43225,206.5316781666484L395.23404166666666,203.86460929950104L416.03583333333336,208.0907911580398L436.837625,232.18484750968634L457.63941666666665,230.17633512817557L478.4412083333334,217.49287483945102L499.24300000000005,231.28779755479047L520.0447916666667,237.53579212461756L540.8465833333333,251.67448943932712L561.6483750000001,229.53661966647968L582.4501666666667,248.46947916940854L603.2519583333334,213.29196888401825L624.05375,255.47177518056026L644.8555416666668,265.81045843927916L665.6573333333333,279.06784304509665L686.4591250000001,232.01281488260904L707.2609166666667,210.79746597566415L728.0627083333334,238.8284160267439L748.8645,164.67412664865077L769.6662916666668,148.2902319635215L790.4680833333333,191.8213343217326L811.2698750000001,216.03514087944765L832.0716666666667,252.78518130883228L852.8734583333334,225.2278245687586L873.67525,208.92448761035962L894.4770416666668,235.3188823197373L915.2788333333333,260.30810910025673L936.080625,265.75548073439484L956.8824166666668,243.2366939875178L977.6842083333333,261.3447656969281L998.4860000000001,276.9726175279334L1019.2877916666667,306.6122222288167L1040.0895833333334,328.81719914184055L1060.891375,301.9708234078616L1081.6931666666667,285.59437267956474L1102.4949583333334,310.06628588974957L1123.2967500000002,300.2278860709349" style="fill: none;" fill="none"></path></g><g><path stroke="rgb(255, 112, 67)" stroke-width="2px" d="M128.97110833333335,-32.177960872003524L133.13146666666668,20.523710178841807L137.29182500000002,29.501709642997344L141.45218333333332,71.78982552467464L145.6125416666667,105.35363294414569L149.7729,130.5816587372606L153.93325833333336,167.96085418626984L158.0936166666667,195.51442858412548L162.25397500000003,124.05120982452705L166.41433333333333,122.55275160085023L170.57469166666667,133.39685484066263L174.73505000000003,139.28512291684706L178.89540833333336,167.41115681382638L183.05576666666667,198.83545658576446L187.216125,206.25963892653218L191.37648333333334,224.28831631512014L195.5368416666667,172.4152833274647L199.6972,170.25262440665276L203.85755833333334,179.17486167246847L208.01791666666668,213.90258708883323L212.178275,224.07561136219553L216.33863333333335,204.44615668424754L220.49899166666668,202.87930253576388L224.65935000000002,202.71831654486348L228.81970833333332,184.9046714829563L232.9800666666667,168.3622189073475L237.14042500000002,187.23685505258243L241.30078333333336,186.63995206226775L245.46114166666666,217.445963756772L249.62150000000003,230.63644984919497L253.78185833333336,242.78562317679723L257.9422166666667,262.40226493910245L262.102575,233.81334774349386L266.26293333333336,229.04683808502256L270.42329166666667,165.85582342695312L274.58365000000003,145.5023342232843L278.74400833333334,153.8935520292067L282.90436666666665,143.36414973963903L287.064725,158.55742780477613L291.2250833333334,196.718841532233L295.3854416666667,185.58712449576964L299.5458,202.93970456817587L303.70615833333335,220.94473204697013L307.8665166666667,213.62159346768664L312.026875,214.1510452629436L316.1872333333334,233.79465979833122L320.3475916666667,227.5522654964583L324.50795000000005,243.79265485477535L328.6683083333333,275.85885355884744L332.82866666666666,208.72874895035056L336.989025,191.89755465336597L341.14938333333333,209.47353911049134L345.3097416666667,244.7849090449167L349.47010000000006,181.75964090994088L353.63045833333337,188.9378915286754L357.79081666666673,118.14739593674578L361.951175,120.03530490569517L366.11153333333334,150.21313766310251L370.2718916666667,174.5248126915257L374.43225,219.3725597229598L378.5926083333334,252.24108598590615L382.7529666666667,268.0291787080834L386.91332500000004,278.3372029962027L391.0736833333334,226.2869758164786L395.23404166666666,226.65726266160397L399.3944,186.68613756384698L403.5547583333333,213.6390451701297L407.7151166666667,215.8758495198307L411.87547500000005,177.89079362012546L416.03583333333336,199.00468580436475L420.1961916666667,236.66900165228955L424.35655,257.0531645391483L428.51690833333333,279.40972094817215L432.6772666666667,197.96326661164605L436.837625,225.41057103132619L440.99798333333337,206.88841741022762L445.15834166666673,233.50548984328202L449.31870000000004,232.128873020603L453.47905833333334,245.64092197579566L457.63941666666665,245.58421586041442L461.799775,227.1408612344831L465.9601333333334,194.96384512455603L470.1204916666667,206.51679206114133L474.28085000000004,232.7023183513954L478.4412083333334,228.8835952654832L482.6015666666667,241.64036567463688L486.761925,267.2635221421737L490.9222833333333,265.35735648185585L495.0826416666667,267.268810046766L499.24300000000005,272.4116704266543L503.40335833333336,284.13770929820055L507.5637166666667,229.45074511675662L511.724075,243.93844005700768L515.8844333333334,229.55498582759523L520.0447916666667,232.4217810832047L524.20515,267.67911313448775L528.3655083333334,232.53658805611417L532.5258666666667,245.8636236046056L536.686225,240.00970458820967L540.8465833333333,279.1735376550798L545.0069416666666,265.1238757971386L549.1673000000001,277.47401093383104L553.3276583333334,256.77314749441865L557.4880166666667,241.67948752640018L561.6483750000001,234.19664402039797L565.8087333333333,193.65100535307346L569.9690916666667,219.1842885407035L574.12945,198.7823539189111L578.2898083333333,229.21195609788782L582.4501666666667,238.92662356161378L586.610525,258.1300289897213L590.7708833333334,275.82585985725814L594.9312416666667,313.20776397989425L599.0916,243.30128970412298L603.2519583333334,224.18148941538416L607.4123166666667,253.77635895461793L611.572675,268.75386842249026L615.7330333333334,294.2756227319571L619.8933916666667,272.5275067168616L624.05375,306.3030001317125L628.2141083333333,334.47202477723056L632.3744666666668,319.9568243041635L636.5348250000001,343.56862783900095L640.6951833333334,303.12406764817285L644.8555416666668,295.9957699487875L649.0159000000001,320.6506839904227L653.1762583333334,318.43109908725876L657.3366166666666,291.3831608801998L661.496975,275.3237775163817L665.6573333333333,288.66419861521626L669.8176916666666,288.54852036681723L673.97805,306.2495125809646L678.1384083333334,273.4626240331673L682.2987666666667,205.48661954736323L686.4591250000001,205.22765368753633L690.6194833333334,222.8526466342488L694.7798416666667,259.8929169099041L698.9402000000001,246.29664264678502L703.1005583333334,256.42633458745524L707.2609166666667,216.14319223198922L711.421275,257.85002960535434L715.5816333333335,278.5886035611557L719.7419916666666,299.7937795301808L723.90235,319.7790098249872L728.0627083333334,321.24370409950245L732.2230666666667,309.0125610871751L736.383425,324L740.5437833333334,306.0198121407118L744.7041416666667,333.4760016653692L748.8645,171.28685018390448L753.0248583333334,211.1243061852724L757.1852166666667,247.32716017986235L761.345575,289.42400209788644L765.5059333333334,194.8135396508793L769.6662916666668,171.69664111731495L773.8266500000001,181.20374861981202L777.9870083333333,197.52044748894767L782.1473666666668,204.74931354551464L786.307725,250.29349421757695L790.4680833333333,267.6510218684609L794.6284416666667,307.2873246473442L798.7888,296.307826504967L802.9491583333333,316.8375695741867L807.1095166666667,286.63602882234375L811.2698750000001,284.1453695959696L815.4302333333334,300.2524906280087L819.5905916666667,298.3452669798735L823.7509500000001,279.00905737862803L827.9113083333334,311.76995536978916L832.0716666666667,343.1512554621487L836.2320250000001,327.40597129408826L840.3923833333334,357.39832203878296L844.5527416666666,304.29266865275497L848.7131,297.8713261195121L852.8734583333334,255.76025292528396L857.0338166666667,294.8399204247343L861.194175,305.461521963758L865.3545333333334,336.3131447516842L869.5148916666667,334.5673844748648L873.67525,286.5404777140449L877.8356083333334,283.26731546539645L881.9959666666667,284.4696762299759L886.156325,318.3080458177392L890.3166833333335,288.44812795838845L894.4770416666668,284.1026968582565L898.6374000000001,284.70472115225874L902.7977583333335,230.7768976189005L906.9581166666667,246.92235156121876L911.118475,237.69298373536725L915.2788333333333,280.6480965910899L919.4391916666667,244.228536952936L923.59955,241.76502683363645L927.7599083333333,243.19782375652048L931.9202666666667,271.60652814942733L936.080625,280.6715613035077L940.2409833333334,275.66595708675436L944.4013416666668,285.2284241353673L948.5617000000001,312.7939015558842L952.7220583333334,321.20002389916414L956.8824166666668,300.5358607262038L961.0427750000001,337.9135597185786L965.2031333333334,353.0427414673745L969.3634916666666,338.7922565583063L973.52385,337.1994988146698L977.6842083333333,304.18433487898517L981.8445666666667,272.2020577068078L986.0049250000001,285.97965670984183L990.1652833333334,259.41916026207775L994.3256416666667,243.0830746405953L998.4860000000001,265.0371004630187L1002.6463583333334,260.4793158519357L1006.8067166666667,284.9602175805159L1010.9670750000001,312.7193927096518L1015.1274333333334,263.89373698001134L1019.2877916666667,301.78926180811345L1023.44815,291.89237235209157L1027.6085083333335,255.5180572485471L1031.7688666666668,233.825872229851L1035.929225,261.3672997018233L1040.0895833333334,308.8568338827068L1044.2499416666667,224.89522741287095L1048.4103,244.15785109127836L1052.5706583333335,238.42599989619077L1056.7310166666668,264.9279983740438L1060.891375,221.8147533966929L1065.0517333333335,256.447948578189L1069.2120916666668,247.37986743672107L1073.37245,251.96972924327238L1077.5328083333334,293.05087197233115L1081.6931666666667,276.6282223882221L1085.853525,259.7121780832486L1090.0138833333333,267.59801844401073L1094.1742416666668,245.4844811136836L1098.3346000000001,280.39737659362004L1102.4949583333334,321.01895777476335L1106.6553166666667,317.67283743966726L1110.815675,302.744330883266L1114.9760333333334,336.6370769600602L1119.1363916666667,321.0540793433818L1123.2967500000002,309.80562662089574L1127.4571083333333,350.49493387601154L1131.6174666666666,287.6001556571732L1135.7778250000001,321.9175173804676L1139.9381833333334,294.09440104508985" style="fill: none;" fill="none"></path></g></g></g></g><g opacity="0.2"><g><g><g><path stroke="rgb(0, 119, 187)" stroke-width="2px" d="M104.00895833333334,-362.348577211716L124.81075000000001,85.85136340351501L145.6125416666667,150.7396117884504L166.41433333333333,75.09374066553184L187.216125,171.91608219874337L208.01791666666668,300.07020006349154L228.81970833333332,175.62467908079907L249.62150000000003,256.6265292860463L270.42329166666667,136.21923653443966L291.2250833333334,329.5203492239751L312.026875,234.1128853386392L332.82866666666666,164.66617364496275L353.63045833333337,152.0229231414607L374.43225,315.0320613891519L395.23404166666666,199.97628514144208L416.03583333333336,214.72363595376092L436.837625,281.0843662690171L457.63941666666665,227.22648179713866L478.4412083333334,200.70033424700392L499.24300000000005,255.55480317558326L520.0447916666667,247.57215477384221L540.8465833333333,276.65669372554703L561.6483750000001,202.56392354334386L582.4501666666667,284.12797141680204L603.2519583333334,174.67295275243035L624.05375,376.96217807240424L644.8555416666668,283.23564340479527L665.6573333333333,302.23241483573685L686.4591250000001,184.63121998956336L707.2609166666667,184.74589160739973L728.0627083333334,299.42035629093607L748.8645,101.95238478834348L769.6662916666668,127.3095553990308L790.4680833333333,321.7157424950565L811.2698750000001,265.2849906929285L832.0716666666667,346.2006990091346L852.8734583333334,193.11762511418118L873.67525,188.03203072503632L894.4770416666668,290.8695108174084L915.2788333333333,311.7471746755642L936.080625,274.4269208198697L956.8824166666668,215.8873664108321L977.6842083333333,295.06521856966606L998.4860000000001,305.1244956438748L1019.2877916666667,372.4507155794027L1040.0895833333334,372.6394518597051L1060.891375,270.5089114934597L1081.6931666666667,264.6218414100417L1102.4949583333334,360.0387738137344L1123.2967500000002,286.85057277295493" style="fill: none;" fill="none"></path></g><g><path stroke="rgb(255, 112, 67)" stroke-width="2px" d="M116.49003333333334,-32.260998849200256L120.65039166666668,25.621829142491585L124.81075000000001,114.87846320986516L128.97110833333335,55.4805361439567L133.13146666666668,221.50421699752903L137.29182500000002,44.12303469635045L141.45218333333332,191.79554932234373L145.6125416666667,184.71782125365624L149.7729,182.468787617249L153.93325833333336,263.926148517256L158.0936166666667,254.50628722305697L162.25397500000003,62.660319983116565L166.41433333333333,120.34103419699672L170.57469166666667,151.78070222038465L174.73505000000003,148.7036771277652L178.89540833333336,228.29682699412655L183.05576666666667,270.86441906499806L187.216125,218.34783982962645L191.37648333333334,257.8236970668004L195.5368416666667,121.88442931177023L199.6972,167.0809097993291L203.85755833333334,193.96001495484134L208.01791666666668,298.623216992098L212.178275,241.18733951569635L216.33863333333335,180.0127156162774L220.49899166666668,200.56719544149618L224.65935000000002,202.4772469670555L228.81970833333332,162.37886980907157L232.9800666666667,147.20826844733494L237.14042500000002,222.757348331928L241.30078333333336,185.7501974494905L245.46114166666666,287.28672046895343L249.62150000000003,253.66470962654265L253.78185833333336,263.72140078670077L257.9422166666667,299.70295162529476L262.102575,200.7756263848233L266.26293333333336,222.2383451154384L270.42329166666667,108.69040837428757L274.58365000000003,120.32469327936958L278.74400833333334,167.71197166343688L282.90436666666665,129.14025043724268L287.064725,185.77156026370366L291.2250833333334,296.7008840899799L295.3854416666667,170.63417414115204L299.5458,234.92357794535482L303.70615833333335,254.42616644365447L307.8665166666667,203.42128727127465L312.026875,214.9496848750312L316.1872333333334,271.1607771102027L320.3475916666667,218.7650243809189L324.50795000000005,273.2849707574692L328.6683083333333,350.2282137827446L332.82866666666666,149.4770516643714L336.989025,170.42930166144072L341.14938333333333,241.9671381089445L345.3097416666667,331.9353780442941L349.47010000000006,124.68436570866562L353.63045833333337,200.5928752986918L357.79081666666673,57.04910655137701L361.951175,122.92478922668549L366.11153333333334,217.87677297002932L370.2718916666667,224.04796884662917L374.43225,358.1748273101989L378.5926083333334,329.6128823194217L382.7529666666667,296.52958881046163L386.91332500000004,295.7043119040837L391.0736833333334,175.643710003638L395.23404166666666,227.21487145604522L399.3944,144.3455364392446L403.5547583333333,270.87838259764084L407.7151166666667,219.31226943599808L411.87547500000005,137.05969400249973L416.03583333333336,240.01651774155937L420.1961916666667,334.2875280506076L424.35655,296.2358790664856L428.51690833333333,323.6298222284904L432.6772666666667,131.94563933197935L436.837625,284.1718939492087L440.99798333333337,183.6111212584713L445.15834166666673,289.7255683090261L449.31870000000004,230.0934757568793L453.47905833333334,269.32666861118673L457.63941666666665,245.49920753315564L461.799775,203.94668789096147L465.9601333333334,158.81560286379025L470.1204916666667,226.27899912227676L474.28085000000004,287.6295651340738L478.4412083333334,223.3767761080991L482.6015666666667,263.79035687669244L486.761925,320.5338203706662L490.9222833333333,262.55439358384115L495.0826416666667,270.1950734965035L499.24300000000005,280.5703200121949L503.40335833333336,304.238816152818L507.5637166666667,177.17448723226966L511.724075,269.6528440118803L515.8844333333334,210.802895271102L520.0447916666667,236.85635994402242L524.20515,354.6020320479312L528.3655083333334,193.94557611360972L532.5258666666667,269.1704175521443L536.686225,231.73772684950086L540.8465833333333,384.1019350582487L545.0069416666666,246.75148336798568L549.1673000000001,298.80932501166626L553.3276583333334,231.2417214032541L557.4880166666667,222.12706395489292L561.6483750000001,223.79002882228792L565.8087333333333,150.88195999042784L569.9690916666667,272.1926422870737L574.12945,173.5552477202988L578.2898083333333,297.74198646514765L582.4501666666667,255.17764391368738L586.610525,294.434624257773L590.7708833333334,308.59420807148314L594.9312416666667,409.5085491586398L599.0916,182.64115331658593L603.2519583333334,200.27742984573132L607.4123166666667,319.46478174103686L611.572675,295.5064127907625L615.7330333333334,347.2504306504016L619.8933916666667,245.94203814168702L624.05375,387.1886388602714L628.2141083333333,395.5025642945254L632.3744666666668,301.0554962256552L636.5348250000001,391.15594722708664L640.6951833333334,260.4301391658167L644.8555416666668,286.04802717793933L649.0159000000001,371.139174607279L653.1762583333334,315.1777770314229L657.3366166666666,259.73670379204134L661.496975,254.69924949078492L665.6573333333333,311.9983489911807L669.8176916666666,288.3752144458212L673.97805,339.0297138086481L678.1384083333334,236.80284819819468L682.2987666666667,145.8005167545195L686.4591250000001,204.840262918587L690.6194833333334,255.45848758901627L694.7798416666667,354.6230818334609L698.9402000000001,228.4436737921484L703.1005583333334,273.4563101113114L707.2609166666667,173.5694540090293L711.421275,376.5563713894525L715.5816333333335,318.6547421194529L719.7419916666666,341.03722160777005L723.90235,357.9782571582724L728.0627083333334,323.47525952886747L732.2230666666667,292.74968873407147L736.383425,350.7737283385454L740.5437833333334,283.31652612732626L744.7041416666667,392.26491522381167L748.8645,82.33553446480964L753.0248583333334,319.5213420996933L757.1852166666667,338.3116055183648L761.345575,410.4209773902679L765.5059333333334,123.5301285666176L769.6662916666668,143.761249720318L773.8266500000001,197.06812961484002L777.9870083333333,227.18131068616486L782.1473666666668,216.49335082480718L786.307725,394.13657366864754L790.4680833333333,299.64614969031635L794.6284416666667,414.6358250628833L798.7888,281.53835191977964L802.9491583333333,356.38204891796124L807.1095166666667,252.1785425229665L811.2698750000001,280.5048647982913L815.4302333333334,329.4512854746336L819.5905916666667,295.5407789444502L823.7509500000001,254.87963514076793L827.9113083333334,388.73335204612437L832.0716666666667,415.0319615605285L836.2320250000001,307.1281227102662L840.3923833333334,424.42886614327614L844.5527416666666,252.98867939004384L848.7131,288.8480497066779L852.8734583333334,211.84194863490205L857.0338166666667,399.343338320118L861.194175,323.42501756388225L865.3545333333334,406.3140049235848L869.5148916666667,331.99603850330755L873.67525,238.50628188512778L877.8356083333334,278.52108672968603L881.9959666666667,286.29640550287473L886.156325,399.4422054898085L890.3166833333335,254.2883867713171L894.4770416666668,277.8694574359172L898.6374000000001,285.61353129369894L902.7977583333335,178.9647830272327L906.9581166666667,276.2054656867611L911.118475,225.0710222596324L915.2788333333333,406.87567850926445L919.4391916666667,204.61924592840856L923.59955,238.16320303484525L927.7599083333333,245.3800341817747L931.9202666666667,333.4034896538572L936.080625,295.7188686405806L940.2409833333334,268.53296942089725L944.4013416666668,301.19573854098655L948.5617000000001,371.92287968992696L952.7220583333334,335.04541356454075L956.8824166666668,275.0417134358851L961.0427750000001,434.1948575186146L965.2031333333334,380.11947871465395L969.3634916666666,320.19114844075176L973.52385,334.8497962606787L977.6842083333333,267.33433196331004L981.8445666666667,236.21817718153142L986.0049250000001,310.21248295174837L990.1652833333334,228.22002609591033L994.3256416666667,222.15473847257408L998.4860000000001,308.204717136409L1002.6463583333334,253.95536663879346L1006.8067166666667,334.95797922930973L1010.9670750000001,372.45427248375415L1015.1274333333334,215.32985468821096L1019.2877916666667,400.50000790812066L1023.44815,278.44297338031026L1027.6085083333335,215.9445076561829L1031.7688666666668,207.2962267064532L1035.929225,320.42133232747494L1040.0895833333334,468.2188123798458L1044.2499416666667,157.80692265466354L1048.4103,280.6044644571146L1052.5706583333335,230.31674371461315L1056.7310166666668,320.80149372459374L1060.891375,177.17436085280218L1065.0517333333335,340.78119174326116L1069.2120916666668,234.95940493059675L1073.37245,259.2061064523108L1077.5328083333334,408.187452883449L1081.6931666666667,255.60514741771217L1085.853525,238.15186794712244L1090.0138833333333,280.507551496034L1094.1742416666668,218.53558773598456L1098.3346000000001,365.88247836496134L1102.4949583333334,433.6120052995327L1106.6553166666667,312.8244079946575L1110.815675,283.37711044433604L1114.9760333333334,417.98668992110186L1119.1363916666667,300.9561102436462L1123.2967500000002,294.71232136821897L1127.4571083333333,463.45879718316746L1131.6174666666666,230.5959834584391L1135.7778250000001,404.9666306326707L1139.9381833333334,261.7437758537506" style="fill: none;" fill="none"></path></g></g></g></g></g></g><g transform="translate(51, 378)" clip-path="url(#clip_1)"><clipPath id="clip_1"><rect width="1248" height="22"></rect></clipPath><g><g><line x1="0" y1="0" x2="0" y2="5" style="visibility: inherit;" fill="rgb(0, 0, 0)" stroke="rgb(204, 204, 204)" stroke-width="1px"></line><line x1="104.00895833333334" y1="0" x2="104.00895833333334" y2="5" style="visibility: inherit;" fill="rgb(0, 0, 0)" stroke="rgb(204, 204, 204)" stroke-width="1px"></line><line x1="208.01791666666668" y1="0" x2="208.01791666666668" y2="5" style="visibility: inherit;" fill="rgb(0, 0, 0)" stroke="rgb(204, 204, 204)" stroke-width="1px"></line><line x1="312.026875" y1="0" x2="312.026875" y2="5" style="visibility: inherit;" fill="rgb(0, 0, 0)" stroke="rgb(204, 204, 204)" stroke-width="1px"></line><line x1="416.03583333333336" y1="0" x2="416.03583333333336" y2="5" style="visibility: inherit;" fill="rgb(0, 0, 0)" stroke="rgb(204, 204, 204)" stroke-width="1px"></line><line x1="520.0447916666667" y1="0" x2="520.0447916666667" y2="5" style="visibility: inherit;" fill="rgb(0, 0, 0)" stroke="rgb(204, 204, 204)" stroke-width="1px"></line><line x1="624.05375" y1="0" x2="624.05375" y2="5" style="visibility: inherit;" fill="rgb(0, 0, 0)" stroke="rgb(204, 204, 204)" stroke-width="1px"></line><line x1="728.0627083333334" y1="0" x2="728.0627083333334" y2="5" style="visibility: inherit;" fill="rgb(0, 0, 0)" stroke="rgb(204, 204, 204)" stroke-width="1px"></line><line x1="832.0716666666667" y1="0" x2="832.0716666666667" y2="5" style="visibility: inherit;" fill="rgb(0, 0, 0)" stroke="rgb(204, 204, 204)" stroke-width="1px"></line><line x1="936.080625" y1="0" x2="936.080625" y2="5" style="visibility: inherit;" fill="rgb(0, 0, 0)" stroke="rgb(204, 204, 204)" stroke-width="1px"></line><line x1="1040.0895833333334" y1="0" x2="1040.0895833333334" y2="5" style="visibility: inherit;" fill="rgb(0, 0, 0)" stroke="rgb(204, 204, 204)" stroke-width="1px"></line><line x1="1144.0985416666667" y1="0" x2="1144.0985416666667" y2="5" style="visibility: inherit;" fill="rgb(0, 0, 0)" stroke="rgb(204, 204, 204)" stroke-width="1px"></line><line x1="1248.1075" y1="0" x2="1248.1075" y2="5" style="visibility: inherit;" fill="rgb(0, 0, 0)" stroke="rgb(204, 204, 204)" stroke-width="1px"></line></g><g transform="translate(0, 8)"><text x="0" y="0" dx="0em" dy="0.95em" style="text-anchor: middle; visibility: hidden; font-family: Roboto, sans-serif; font-size: 12px; font-weight: 200;" fill="rgb(50, 49, 63)" stroke="none" stroke-width="1px">-500</text><text x="104.00895833333334" y="0" dx="0em" dy="0.95em" style="text-anchor: middle; visibility: inherit; font-family: Roboto, sans-serif; font-size: 12px; font-weight: 200;" fill="rgb(50, 49, 63)" stroke="none" stroke-width="1px">0</text><text x="208.01791666666668" y="0" dx="0em" dy="0.95em" style="text-anchor: middle; visibility: inherit; font-family: Roboto, sans-serif; font-size: 12px; font-weight: 200;" fill="rgb(50, 49, 63)" stroke="none" stroke-width="1px">500</text><text x="312.026875" y="0" dx="0em" dy="0.95em" style="text-anchor: middle; visibility: inherit; font-family: Roboto, sans-serif; font-size: 12px; font-weight: 200;" fill="rgb(50, 49, 63)" stroke="none" stroke-width="1px">1k</text><text x="416.03583333333336" y="0" dx="0em" dy="0.95em" style="text-anchor: middle; visibility: inherit; font-family: Roboto, sans-serif; font-size: 12px; font-weight: 200;" fill="rgb(50, 49, 63)" stroke="none" stroke-width="1px">1.5k</text><text x="520.0447916666667" y="0" dx="0em" dy="0.95em" style="text-anchor: middle; visibility: inherit; font-family: Roboto, sans-serif; font-size: 12px; font-weight: 200;" fill="rgb(50, 49, 63)" stroke="none" stroke-width="1px">2k</text><text x="624.05375" y="0" dx="0em" dy="0.95em" style="text-anchor: middle; visibility: inherit; font-family: Roboto, sans-serif; font-size: 12px; font-weight: 200;" fill="rgb(50, 49, 63)" stroke="none" stroke-width="1px">2.5k</text><text x="728.0627083333334" y="0" dx="0em" dy="0.95em" style="text-anchor: middle; visibility: inherit; font-family: Roboto, sans-serif; font-size: 12px; font-weight: 200;" fill="rgb(50, 49, 63)" stroke="none" stroke-width="1px">3k</text><text x="832.0716666666667" y="0" dx="0em" dy="0.95em" style="text-anchor: middle; visibility: inherit; font-family: Roboto, sans-serif; font-size: 12px; font-weight: 200;" fill="rgb(50, 49, 63)" stroke="none" stroke-width="1px">3.5k</text><text x="936.080625" y="0" dx="0em" dy="0.95em" style="text-anchor: middle; visibility: inherit; font-family: Roboto, sans-serif; font-size: 12px; font-weight: 200;" fill="rgb(50, 49, 63)" stroke="none" stroke-width="1px">4k</text><text x="1040.0895833333334" y="0" dx="0em" dy="0.95em" style="text-anchor: middle; visibility: inherit; font-family: Roboto, sans-serif; font-size: 12px; font-weight: 200;" fill="rgb(50, 49, 63)" stroke="none" stroke-width="1px">4.5k</text><text x="1144.0985416666667" y="0" dx="0em" dy="0.95em" style="text-anchor: middle; visibility: inherit; font-family: Roboto, sans-serif; font-size: 12px; font-weight: 200;" fill="rgb(50, 49, 63)" stroke="none" stroke-width="1px">5k</text><text x="1248.1075" y="0" dx="0em" dy="0.95em" style="text-anchor: middle; visibility: hidden; font-family: Roboto, sans-serif; font-size: 12px; font-weight: 200;" fill="rgb(50, 49, 63)" stroke="none" stroke-width="1px">5.5k</text></g><line x1="0" y1="0" x2="1248.1075" y2="0" fill="rgb(0, 0, 0)" stroke="rgb(204, 204, 204)" stroke-width="1px"></line></g></g></g></g></svg>